<svg width="246.23999633789063" height="87.2052521214124" viewBox="0 0 300 106.24421712760584" class="looka-1j8o68f"><defs id="SvgjsDefs1311"><linearGradient id="SvgjsLinearGradient1318"><stop id="SvgjsStop1319" stop-color="#905e26" offset="0"></stop><stop id="SvgjsStop1320" stop-color="#f5ec9b" offset="0.5"></stop><stop id="SvgjsStop1321" stop-color="#905e26" offset="1"></stop></linearGradient><linearGradient id="SvgjsLinearGradient1322"><stop id="SvgjsStop1323" stop-color="#905e26" offset="0"></stop><stop id="SvgjsStop1324" stop-color="#f5ec9b" offset="0.5"></stop><stop id="SvgjsStop1325" stop-color="#905e26" offset="1"></stop></linearGradient><linearGradient id="SvgjsLinearGradient1326"><stop id="SvgjsStop1327" stop-color="#905e26" offset="0"></stop><stop id="SvgjsStop1328" stop-color="#f5ec9b" offset="0.5"></stop><stop id="SvgjsStop1329" stop-color="#905e26" offset="1"></stop></linearGradient></defs><g id="SvgjsG1312" featurekey="T16ghp-0" transform="matrix(1.014510757775417,0,0,1.014510757775417,3.5883232808747865,9.799079750149481)" fill="url(#SvgjsLinearGradient1318)"><g xmlns="http://www.w3.org/2000/svg"><g><path fill="url(#SvgjsLinearGradient1318)" d="M44.873,2.446c-13.465-5.813-21.469,9.813-14.12,19.163C32.176,11.937,38.708,7.375,44.873,2.446z     M14.616,23.626c-3.472,1.906-4.914,5.843-9.077,7.059c1.598,7.577-4.641,14.246,2.017,8.068v-7.059    c6.161-3.368,10.435-13.613,20.171-10.086c-3.051-4.271-1.041-13.372-2.017-17.146c-5.202,1.443-10.108,6.544-7.061,13.111    c-5.634-3.014-17.388,1.233-16.137,5.043C4.809,20.716,13.539,20.96,14.616,23.626z M13.945,38.753c0,0,2.877-4.601,7.313-6.975    c0.824-0.441-7.985,0-7.985,0L13.945,38.753z M33.779,21.608c5.575-7.2,14.416-11.136,27.232-11.094    C53.39-4.303,31.962,11.711,33.779,21.608z M67.063,36.737c-3.7-10.131-18.396-13.015-32.274-11.095    c27.511,6.801-4.269,35.25,0,49.421c2.032,6.749,15.094,11.283,26.222,7.06c-23.024-4.493,1.187-45.024-15.128-53.454    c20.691,5.66-2.267,41.805,13.11,44.377c-4.249-2.781-3.641-5.699-3.049-7.016C61.257,56.311,71.668,49.348,67.063,36.737z     M35.797,22.617c18.77-3.389,33.964,4.848,36.309,21.18C86.421,15.989,49.034,5.956,35.797,22.617z M34.789,28.668    c8.168,10.069,2.536,26.342-14.122,23.196c1.136,2.898,0.205,7.865,2.019,10.086c1.627-6.438,6.64-9.498,16.137-8.069    C42.995,47.099,43.974,30.482,34.789,28.668z M17.585,68.788c-0.096,0.069-0.242,0.198-0.446,0.399    c-0.604,0.459-1.363,0.763-2.371,0.815c-0.081-0.014-0.158-0.03-0.234-0.05c-0.535-0.438-3.771-3.168-3.961-5.483    c0.149-0.22,0.389-0.449,0.781-0.614c0.038-0.011,0.073-0.022,0.111-0.034c2.338-0.229,3.041,1.177,5.169,1.154    c-0.603-1.795,2.955-4.188,0-5.041c-5.859,6.5-18.003-1.564-12.103-10.086c-3.632-0.27-4.86,1.864-8.068,2.017    c6.749,9.724,14.194,18.75,25.213,24.207c-1.135-2.9-0.203-7.866-2.016-10.086C18.963,66.914,18.403,67.981,17.585,68.788z"></path></g></g></g><g id="SvgjsG1313" featurekey="Fok8m0-0" transform="matrix(5.892752153578774,0,0,5.892752153578774,97.05362673309381,-35.35651292147264)" fill="url(#SvgjsLinearGradient1322)"><path d="M9.36 7.9399999999999995 l0.28 2.26 l-0.7 0 l-0.22 -0.42 c-0.58 -1.04 -1.08 -1.46 -2.12 -1.46 l-2.08 0 c-0.16 0 -0.24 0.08 -0.24 0.24 l0 4.72 l2.38 0 c1 0 1.22 -0.46 1.4 -1.28 l0.6 0 c-0.1 1.14 -0.1 2.18 0 3.3 l-0.6 0 c-0.18 -0.8 -0.4 -1.28 -1.4 -1.28 l-2.38 0 l0 4.62 c0 0.5 0.34 0.64 1.4 0.72 l0 0.64 c-1.72 -0.06 -3.46 -0.06 -5.18 0 l0 -0.64 c1.08 -0.08 1.42 -0.22 1.42 -0.72 l0 -9.7 c0 -0.5 -0.34 -0.64 -1.42 -0.72 l0 -0.64 l8.52 0 c0.26 0 0.3 0.06 0.34 0.36 z M18.54 17.8 c0 0.72 0.44 0.86 1.22 0.74 l0 0.7 c-1.76 0.42 -2.5 1 -3 1 c-0.34 0 -0.52 -0.18 -0.5 -0.6 l0.12 -1.5 c-0.44 0.96 -1.38 2.1 -3.1 2.1 c-1.42 0 -2.96 -0.7 -2.96 -2.54 s1.26 -3.06 5.94 -4.02 l0 -0.92 c0 -1.68 -0.12 -2.34 -1.02 -2.34 c-2.92 0 -1.38 3.02 -3.26 3.02 c-0.68 0 -1 -0.4 -1 -0.94 c0 -1.48 1.9 -2.7 4.34 -2.7 c2.26 0 3.22 0.68 3.22 3.08 l0 4.92 z M14.100000000000001 19.26 c1.24 0 1.96 -1.46 2.16 -2.12 l0 -2.84 c-3.32 0.72 -3.6 2.36 -3.6 3.24 c0 1.02 0.54 1.72 1.44 1.72 z M22.660000000000004 8.4 c-0.66 0 -1.22 -0.54 -1.22 -1.2 s0.56 -1.2 1.22 -1.2 c0.64 0 1.2 0.54 1.2 1.2 s-0.56 1.2 -1.2 1.2 z M23.94 18.62 c0 0.5 0.54 0.66 1.22 0.74 l0 0.64 c-1.56 -0.06 -3.12 -0.06 -4.68 0 l0 -0.64 c0.66 -0.08 1.2 -0.24 1.2 -0.74 l0 -6.46 c0 -0.7 -0.44 -0.88 -1.22 -0.84 l0 -0.62 c1.84 -0.28 2.58 -0.94 3.06 -0.94 c0.32 0 0.54 0.16 0.54 0.52 c0 0.66 -0.12 1.4 -0.12 2.64 l0 5.7 z M34.36 17.14 l-0.68 2.86 l-7.3 0 c-0.36 0 -0.52 -0.34 -0.32 -0.66 l5.58 -8.74 l-2.96 0 c-0.78 0 -0.92 0.42 -1.64 1.92 l-0.78 0 l0.72 -2.7 l0.64 0 c0.56 0.14 0.9 0.16 1.88 0.16 c1.48 0 2.98 0 4.94 -0.04 l-5.96 9.42 l2.98 -0.02 c1.06 0 1.3 -0.48 2.08 -2.2 l0.82 0 z"></path></g><g id="SvgjsG1314" featurekey="TflPBd-0" transform="matrix(0.7759305941354998,0,0,0.7759305941354998,98.71197087181935,90.4928251786731)" fill="url(#SvgjsLinearGradient1326)"><path d="M6.08 13.36 l-2.64 -0.000039062 l0 6.06 c0 0.24 -0.08666 0.44666 -0.26 0.62 s-0.38 0.26 -0.62 0.26 c-0.25334 0 -0.46668 -0.08666 -0.64002 -0.26 s-0.26 -0.38 -0.26 -0.62 l0 -14.02 c0 -0.24 0.08666 -0.44666 0.26 -0.62 s0.38668 -0.26 0.64002 -0.26 l3.52 0 c0.61334 0 1.19 0.11666 1.73 0.35 s1.01 0.55 1.41 0.95 s0.71666 0.86666 0.95 1.4 s0.35 1.1067 0.35 1.72 s-0.11666 1.1867 -0.35 1.72 s-0.55 1 -0.95 1.4 s-0.87 0.71666 -1.41 0.95 s-1.1167 0.35 -1.73 0.35 z M6.08 6.279999999999999 l-2.64 0 l0 5.3 l2.64 0 c0.36 0 0.70334 -0.07 1.03 -0.21 s0.61 -0.33 0.85 -0.57 s0.43 -0.52 0.57 -0.84 s0.21 -0.66 0.21 -1.02 s-0.07 -0.70334 -0.21 -1.03 s-0.33 -0.61 -0.57 -0.85 s-0.52334 -0.43 -0.85 -0.57 s-0.67 -0.21 -1.03 -0.21 z M32.278 20.3 c-1.0933 0 -2.12 -0.20666 -3.08 -0.62 s-1.7967 -0.97668 -2.51 -1.69 s-1.2767 -1.55 -1.69 -2.51 s-0.62 -1.9867 -0.62 -3.08 c0 -1.08 0.20666 -2.1 0.62 -3.06 s0.97668 -1.7967 1.69 -2.51 s1.55 -1.2767 2.51 -1.69 s1.9867 -0.62 3.08 -0.62 c1.08 0 2.1 0.20666 3.06 0.62 s1.7967 0.97668 2.51 1.69 s1.2767 1.55 1.69 2.51 s0.62 1.98 0.62 3.06 c0 1.0933 -0.20666 2.12 -0.62 3.08 s-0.97668 1.7967 -1.69 2.51 s-1.55 1.2767 -2.51 1.69 s-1.98 0.62 -3.06 0.62 z M32.278 6.279999999999999 c-0.84 0 -1.6333 0.16 -2.38 0.48 s-1.4 0.75666 -1.96 1.31 s-1 1.2033 -1.32 1.95 s-0.48 1.54 -0.48 2.38 s0.16 1.6333 0.48 2.38 s0.76 1.4 1.32 1.96 s1.2133 1 1.96 1.32 s1.54 0.48 2.38 0.48 s1.6333 -0.16 2.38 -0.48 s1.3967 -0.76 1.95 -1.32 s0.99 -1.2133 1.31 -1.96 s0.48 -1.54 0.48 -2.38 s-0.16 -1.6333 -0.48 -2.38 s-0.75666 -1.3967 -1.31 -1.95 s-1.2033 -0.99 -1.95 -1.31 s-1.54 -0.48 -2.38 -0.48 z M59.776 13.36 l-0.24 -0.000039062 l0.26 -0.46 l3.62 6.06 c0.08 0.14666 0.12 0.3 0.12 0.46 c0 0.24 -0.08666 0.44666 -0.26 0.62 s-0.38 0.26 -0.62 0.26 c-0.16 0 -0.31 -0.04 -0.45 -0.12 s-0.25 -0.18666 -0.33 -0.32 l-3.88 -6.5 l-0.86 0 l0 6.06 c0 0.24 -0.08666 0.44666 -0.26 0.62 s-0.38 0.26 -0.62 0.26 c-0.25334 0 -0.46668 -0.08666 -0.64002 -0.26 s-0.26 -0.38 -0.26 -0.62 l0 -14.02 c0 -0.24 0.08666 -0.44666 0.26 -0.62 s0.38668 -0.26 0.64002 -0.26 l3.52 0 c0.61334 0 1.19 0.11666 1.73 0.35 s1.01 0.55 1.41 0.95 s0.71666 0.86666 0.95 1.4 s0.35 1.1067 0.35 1.72 s-0.11666 1.1867 -0.35 1.72 s-0.55 1 -0.95 1.4 s-0.87 0.71666 -1.41 0.95 s-1.1167 0.35 -1.73 0.35 z M59.776 6.279999999999999 l-2.64 0 l0 5.3 l2.64 0 c0.36 0 0.70334 -0.07 1.03 -0.21 s0.61 -0.33 0.85 -0.57 s0.43 -0.52 0.57 -0.84 s0.21 -0.66 0.21 -1.02 s-0.07 -0.70334 -0.21 -1.03 s-0.33 -0.61 -0.57 -0.85 s-0.52334 -0.43 -0.85 -0.57 s-0.67 -0.21 -1.03 -0.21 z M86.11400000000002 6.279999999999999 l-3.24 0 l0 13.14 c0 0.24 -0.08666 0.44666 -0.26 0.62 s-0.38 0.26 -0.62 0.26 c-0.25334 0 -0.46668 -0.08666 -0.64002 -0.26 s-0.26 -0.38 -0.26 -0.62 l0 -13.14 l-3.24 0 c-0.24 0 -0.44666 -0.08334 -0.62 -0.25 s-0.26 -0.37666 -0.26 -0.63 c0 -0.24 0.08666 -0.44666 0.26 -0.62 s0.38 -0.26 0.62 -0.26 l8.26 0 c0.24 0 0.44666 0.08666 0.62 0.26 s0.26 0.38 0.26 0.62 c0 0.25334 -0.08666 0.46334 -0.26 0.63 s-0.38 0.25 -0.62 0.25 z M108.852 6.279999999999999 l-6 0 l0 5.18 l5.06 0 c0.24 0 0.44666 0.08666 0.62 0.26 s0.26 0.38 0.26 0.62 c0 0.25334 -0.08666 0.46334 -0.26 0.63 s-0.38 0.25 -0.62 0.25 l-5.06 0 l0 6.2 c0 0.24 -0.08666 0.44666 -0.26 0.62 s-0.38 0.26 -0.62 0.26 c-0.25334 0 -0.46668 -0.08666 -0.64002 -0.26 s-0.26 -0.38 -0.26 -0.62 l0 -14.02 c0 -0.24 0.08666 -0.44666 0.26 -0.62 s0.38668 -0.26 0.64002 -0.26 l6.88 0 c0.25334 0 0.46668 0.08666 0.64002 0.26 s0.26 0.38 0.26 0.62 c0 0.25334 -0.08666 0.46334 -0.26 0.63 s-0.38668 0.25 -0.64002 0.25 z M131.07 20.3 c-1.0933 0 -2.12 -0.20666 -3.08 -0.62 s-1.7967 -0.97668 -2.51 -1.69 s-1.2767 -1.55 -1.69 -2.51 s-0.62 -1.9867 -0.62 -3.08 c0 -1.08 0.20666 -2.1 0.62 -3.06 s0.97668 -1.7967 1.69 -2.51 s1.55 -1.2767 2.51 -1.69 s1.9867 -0.62 3.08 -0.62 c1.08 0 2.1 0.20666 3.06 0.62 s1.7967 0.97668 2.51 1.69 s1.2767 1.55 1.69 2.51 s0.62 1.98 0.62 3.06 c0 1.0933 -0.20666 2.12 -0.62 3.08 s-0.97668 1.7967 -1.69 2.51 s-1.55 1.2767 -2.51 1.69 s-1.98 0.62 -3.06 0.62 z M131.07 6.279999999999999 c-0.84 0 -1.6333 0.16 -2.38 0.48 s-1.4 0.75666 -1.96 1.31 s-1 1.2033 -1.32 1.95 s-0.48 1.54 -0.48 2.38 s0.16 1.6333 0.48 2.38 s0.76 1.4 1.32 1.96 s1.2133 1 1.96 1.32 s1.54 0.48 2.38 0.48 s1.6333 -0.16 2.38 -0.48 s1.3967 -0.76 1.95 -1.32 s0.99 -1.2133 1.31 -1.96 s0.48 -1.54 0.48 -2.38 s-0.16 -1.6333 -0.48 -2.38 s-0.75666 -1.3967 -1.31 -1.95 s-1.2033 -0.99 -1.95 -1.31 s-1.54 -0.48 -2.38 -0.48 z M160.368 20.3 l-5.34 0 c-0.24 0 -0.44666 -0.08666 -0.62 -0.26 s-0.26 -0.38 -0.26 -0.62 l0 -14.02 c0 -0.25334 0.08666 -0.46334 0.26 -0.63 s0.38 -0.25 0.62 -0.25 c0.25334 0 0.46334 0.08334 0.63 0.25 s0.25 0.37666 0.25 0.63 l0 13.14 l4.46 0 c0.25334 0 0.46668 0.08666 0.64002 0.26 s0.26 0.38 0.26 0.62 s-0.08666 0.44666 -0.26 0.62 s-0.38668 0.26 -0.64002 0.26 z M176.026 20.3 c-0.25334 0 -0.46668 -0.08666 -0.64002 -0.26 s-0.26 -0.38 -0.26 -0.62 l0 -14.02 c0 -0.24 0.08666 -0.44666 0.26 -0.62 s0.38668 -0.26 0.64002 -0.26 c0.24 0 0.44666 0.08666 0.62 0.26 s0.26 0.38 0.26 0.62 l0 14.02 c0 0.24 -0.08666 0.44666 -0.26 0.62 s-0.38 0.26 -0.62 0.26 z M199.984 20.3 c-1.0933 0 -2.12 -0.20666 -3.08 -0.62 s-1.7967 -0.97668 -2.51 -1.69 s-1.2767 -1.55 -1.69 -2.51 s-0.62 -1.9867 -0.62 -3.08 c0 -1.08 0.20666 -2.1 0.62 -3.06 s0.97668 -1.7967 1.69 -2.51 s1.55 -1.2767 2.51 -1.69 s1.9867 -0.62 3.08 -0.62 c1.08 0 2.1 0.20666 3.06 0.62 s1.7967 0.97668 2.51 1.69 s1.2767 1.55 1.69 2.51 s0.62 1.98 0.62 3.06 c0 1.0933 -0.20666 2.12 -0.62 3.08 s-0.97668 1.7967 -1.69 2.51 s-1.55 1.2767 -2.51 1.69 s-1.98 0.62 -3.06 0.62 z M199.984 6.279999999999999 c-0.84 0 -1.6333 0.16 -2.38 0.48 s-1.4 0.75666 -1.96 1.31 s-1 1.2033 -1.32 1.95 s-0.48 1.54 -0.48 2.38 s0.16 1.6333 0.48 2.38 s0.76 1.4 1.32 1.96 s1.2133 1 1.96 1.32 s1.54 0.48 2.38 0.48 s1.6333 -0.16 2.38 -0.48 s1.3967 -0.76 1.95 -1.32 s0.99 -1.2133 1.31 -1.96 s0.48 -1.54 0.48 -2.38 s-0.16 -1.6333 -0.48 -2.38 s-0.75666 -1.3967 -1.31 -1.95 s-1.2033 -0.99 -1.95 -1.31 s-1.54 -0.48 -2.38 -0.48 z"></path></g></svg>